<mxfile host="65bd71144e">
    <diagram id="ExdccTZqctQwAvQB16s_" name="Page-1">
        <mxGraphModel dx="1856" dy="1979" grid="1" gridSize="10" guides="1" tooltips="1" connect="1" arrows="1" fold="1" page="0" pageScale="1" pageWidth="827" pageHeight="1169" background="none" math="0" shadow="0">
            <root>
                <mxCell id="0"/>
                <mxCell id="1" parent="0"/>
                <mxCell id="49" value="" style="rounded=1;whiteSpace=wrap;html=1;rotation=0;" vertex="1" parent="1">
                    <mxGeometry x="10" y="360" width="740" height="340" as="geometry"/>
                </mxCell>
                <mxCell id="51" value="" style="rounded=1;whiteSpace=wrap;html=1;rotation=0;" vertex="1" parent="1">
                    <mxGeometry x="10" y="10" width="740" height="310" as="geometry"/>
                </mxCell>
                <mxCell id="58" value="" style="rounded=0;whiteSpace=wrap;html=1;fontSize=18;shadow=1;dashed=1;" vertex="1" parent="1">
                    <mxGeometry x="425" y="45.75" width="210" height="604.25" as="geometry"/>
                </mxCell>
                <mxCell id="56" value="" style="rounded=0;whiteSpace=wrap;html=1;fontSize=18;shadow=1;dashed=1;" vertex="1" parent="1">
                    <mxGeometry x="20.5" y="150" width="210" height="400" as="geometry"/>
                </mxCell>
                <mxCell id="33" value="" style="aspect=fixed;perimeter=ellipsePerimeter;html=1;align=center;shadow=0;dashed=0;spacingTop=3;image;image=img/lib/active_directory/laptop_client.svg;" vertex="1" parent="1">
                    <mxGeometry x="-30" y="290" width="81" height="90" as="geometry"/>
                </mxCell>
                <mxCell id="34" value="" style="aspect=fixed;perimeter=ellipsePerimeter;html=1;align=center;shadow=0;dashed=0;spacingTop=3;image;image=img/lib/active_directory/interface.svg;" vertex="1" parent="1">
                    <mxGeometry x="65" y="283.75" width="50" height="23.5" as="geometry"/>
                </mxCell>
                <mxCell id="35" value="" style="aspect=fixed;perimeter=ellipsePerimeter;html=1;align=center;shadow=0;dashed=0;spacingTop=3;image;image=img/lib/active_directory/interface.svg;" vertex="1" parent="1">
                    <mxGeometry x="60" y="370" width="50" height="23.5" as="geometry"/>
                </mxCell>
                <mxCell id="36" value="en0&lt;br&gt;inet6 &lt;b&gt;fe80::10%en0&lt;/b&gt;&lt;br&gt;scopeid 0x10" style="rounded=0;whiteSpace=wrap;html=1;fontSize=14;" vertex="1" parent="1">
                    <mxGeometry x="35" y="190" width="180" height="73.75" as="geometry"/>
                </mxCell>
                <mxCell id="38" value="en1&lt;br&gt;inet6 &lt;b&gt;fe80::10%en1&lt;/b&gt;&lt;br&gt;scopeid 0x11" style="rounded=0;whiteSpace=wrap;html=1;fontSize=14;" vertex="1" parent="1">
                    <mxGeometry x="30" y="420" width="180" height="70" as="geometry"/>
                </mxCell>
                <mxCell id="39" value="" style="aspect=fixed;perimeter=ellipsePerimeter;html=1;align=center;shadow=0;dashed=0;spacingTop=3;image;image=img/lib/active_directory/laptop_client.svg;" vertex="1" parent="1">
                    <mxGeometry x="515" y="202.5" width="45" height="50" as="geometry"/>
                </mxCell>
                <mxCell id="40" value="" style="aspect=fixed;perimeter=ellipsePerimeter;html=1;align=center;shadow=0;dashed=0;spacingTop=3;image;image=img/lib/active_directory/laptop_client.svg;" vertex="1" parent="1">
                    <mxGeometry x="520" y="440" width="45" height="50" as="geometry"/>
                </mxCell>
                <mxCell id="41" value="" style="aspect=fixed;perimeter=ellipsePerimeter;html=1;align=center;shadow=0;dashed=0;spacingTop=3;image;image=img/lib/active_directory/interface.svg;rotation=-180;" vertex="1" parent="1">
                    <mxGeometry x="465" y="215.75" width="50" height="23.5" as="geometry"/>
                </mxCell>
                <mxCell id="42" value="" style="aspect=fixed;perimeter=ellipsePerimeter;html=1;align=center;shadow=0;dashed=0;spacingTop=3;image;image=img/lib/active_directory/interface.svg;rotation=-180;" vertex="1" parent="1">
                    <mxGeometry x="460" y="453.25" width="50" height="23.5" as="geometry"/>
                </mxCell>
                <mxCell id="43" value="en0&lt;br&gt;inet6 &lt;b&gt;fe80::20%en0&lt;/b&gt;" style="rounded=0;whiteSpace=wrap;html=1;fontSize=14;" vertex="1" parent="1">
                    <mxGeometry x="440" y="140" width="180" height="50" as="geometry"/>
                </mxCell>
                <mxCell id="44" value="en0&lt;br&gt;inet6 &lt;b&gt;fe80::20%en0&lt;/b&gt;" style="rounded=0;whiteSpace=wrap;html=1;fontSize=14;" vertex="1" parent="1">
                    <mxGeometry x="440" y="510" width="180" height="50" as="geometry"/>
                </mxCell>
                <mxCell id="45" value="" style="endArrow=none;html=1;entryX=1;entryY=0.5;entryDx=0;entryDy=0;exitX=1;exitY=0.25;exitDx=0;exitDy=0;" edge="1" parent="1" source="34" target="41">
                    <mxGeometry width="50" height="50" relative="1" as="geometry">
                        <mxPoint x="745" y="713.75" as="sourcePoint"/>
                        <mxPoint x="795" y="663.75" as="targetPoint"/>
                    </mxGeometry>
                </mxCell>
                <mxCell id="50" value="" style="endArrow=none;html=1;entryX=1;entryY=0.5;entryDx=0;entryDy=0;exitX=1;exitY=0.5;exitDx=0;exitDy=0;" edge="1" parent="1" source="35" target="42">
                    <mxGeometry width="50" height="50" relative="1" as="geometry">
                        <mxPoint x="110" y="381.75" as="sourcePoint"/>
                        <mxPoint x="400" y="515" as="targetPoint"/>
                    </mxGeometry>
                </mxCell>
                <mxCell id="52" value="&lt;font style=&quot;font-size: 18px;&quot;&gt;zone&lt;/font&gt;" style="text;html=1;align=center;verticalAlign=middle;resizable=0;points=[];autosize=1;strokeColor=none;fillColor=none;" vertex="1" parent="1">
                    <mxGeometry x="40" y="30" width="60" height="40" as="geometry"/>
                </mxCell>
                <mxCell id="53" value="&lt;font style=&quot;font-size: 18px;&quot;&gt;zone&lt;/font&gt;" style="text;html=1;align=center;verticalAlign=middle;resizable=0;points=[];autosize=1;strokeColor=none;fillColor=none;" vertex="1" parent="1">
                    <mxGeometry x="40" y="640" width="60" height="40" as="geometry"/>
                </mxCell>
                <mxCell id="54" value="Same link-local (unicast) address can be set on different interfaces." style="shape=note;whiteSpace=wrap;html=1;backgroundOutline=1;darkOpacity=0.05;fontSize=18;" vertex="1" parent="1">
                    <mxGeometry x="-180" y="-260" width="440" height="110" as="geometry"/>
                </mxCell>
                <mxCell id="55" value="" style="endArrow=none;dashed=1;html=1;fontSize=18;entryX=0.5;entryY=1;entryDx=0;entryDy=0;entryPerimeter=0;exitX=0.5;exitY=0;exitDx=0;exitDy=0;" edge="1" parent="1" source="56" target="54">
                    <mxGeometry width="50" height="50" relative="1" as="geometry">
                        <mxPoint x="60" y="-50" as="sourcePoint"/>
                        <mxPoint x="-40" y="-40" as="targetPoint"/>
                    </mxGeometry>
                </mxCell>
                <mxCell id="57" value="Same link-local (unicast) address can be set to a node on different zone (scopeid)." style="shape=note;whiteSpace=wrap;html=1;backgroundOutline=1;darkOpacity=0.05;fontSize=18;" vertex="1" parent="1">
                    <mxGeometry x="350" y="-220" width="470" height="110" as="geometry"/>
                </mxCell>
                <mxCell id="59" value="" style="endArrow=none;dashed=1;html=1;fontSize=18;entryX=0.515;entryY=1;entryDx=0;entryDy=0;entryPerimeter=0;exitX=0.5;exitY=0;exitDx=0;exitDy=0;" edge="1" parent="1" source="58" target="57">
                    <mxGeometry width="50" height="50" relative="1" as="geometry">
                        <mxPoint x="135.5" y="55.75" as="sourcePoint"/>
                        <mxPoint x="50" y="-140" as="targetPoint"/>
                    </mxGeometry>
                </mxCell>
                <mxCell id="60" value="So scope_id is important to identify source/destination&lt;br&gt;&lt;b&gt;&lt;i&gt;when the node has two or more network interfaces&lt;/i&gt;&lt;/b&gt;." style="shape=note;whiteSpace=wrap;html=1;backgroundOutline=1;darkOpacity=0.05;fontSize=18;" vertex="1" parent="1">
                    <mxGeometry x="-550" y="10" width="490" height="110" as="geometry"/>
                </mxCell>
                <mxCell id="61" value="" style="endArrow=classic;html=1;fontSize=18;exitX=0.531;exitY=1;exitDx=0;exitDy=0;exitPerimeter=0;entryX=-0.025;entryY=0.172;entryDx=0;entryDy=0;entryPerimeter=0;" edge="1" parent="1" source="60" target="33">
                    <mxGeometry width="50" height="50" relative="1" as="geometry">
                        <mxPoint x="-240" y="210" as="sourcePoint"/>
                        <mxPoint x="-190" y="160" as="targetPoint"/>
                    </mxGeometry>
                </mxCell>
            </root>
        </mxGraphModel>
    </diagram>
</mxfile>